<?xml version="1.0" encoding="UTF-8"?>
<svg width="312px" height="137px" viewBox="0 0 312 137" version="1.1" xmlns="http://www.w3.org/2000/svg" xmlns:xlink="http://www.w3.org/1999/xlink">
    <title>Group 3</title>
    <g id="Final-Screens" stroke="none" stroke-width="1" fill="none" fill-rule="evenodd">
        <g id="Phone-Number" transform="translate(-384.000000, -117.000000)">
            <g id="Group-3" transform="translate(384.000000, 117.000000)">
                <g id="Group-2" transform="translate(0.000000, 12.000000)">
                    <polygon id="Rectangle" fill="#000000" points="8.576108 0 270 0 263.567919 77.4376127 223.676454 77.4376127 225.621572 65.480644 208.669103 77.4376127 28.5377541 77.4376127 -7.72928795e-14 99.0393013"></polygon>
                    <path d="M39.0963323,63.4966256 C42.3981339,63.4966256 45.9250583,62.8213577 49.076778,61.5458515 L50.5775969,50.7415641 C48.1762867,51.9420405 44.8744851,52.8423978 41.7978063,52.8423978 C35.2692441,52.8423978 31.6672788,48.8658198 32.4176882,43.4636761 C33.1680977,38.0615324 37.8206363,34.0849543 44.3491985,34.0849543 C47.5009182,34.0849543 50.5775969,34.9853116 52.6037024,36.185788 L54.1045213,25.3815006 C51.3280064,24.1059944 48.1012457,23.4307265 44.7994441,23.4307265 C32.5677701,23.4307265 22.7374063,32.3592696 21.1615465,43.4636761 C19.5856866,54.8682017 26.8646583,63.4966256 39.0963323,63.4966256 Z M74.1404536,63.4966256 C85.921882,63.4966256 96.0524095,54.8682017 97.6282694,43.4636761 C99.2041292,32.0591505 91.6249938,23.4307265 79.8435654,23.4307265 C68.0621371,23.4307265 57.9316095,32.0591505 56.3557497,43.4636761 C54.7798898,54.8682017 62.3590253,63.4966256 74.1404536,63.4966256 Z M75.7163135,52.8423978 C70.3133654,52.8423978 66.861482,48.8658198 67.6118914,43.4636761 C68.3623009,38.0615324 72.9397985,34.0849543 78.3427465,34.0849543 C83.5956127,34.0849543 87.1225371,38.0615324 86.3721276,43.4636761 C85.5466773,48.8658198 81.0442206,52.8423978 75.7163135,52.8423978 Z M111.660926,62.5962684 L115.187851,37.9114728 C115.93826,35.51052 118.189488,34.0849543 120.890962,34.0849543 C123.667477,34.0849543 125.243337,35.9606987 124.793091,38.8868599 L121.416249,62.5962684 L132.372227,62.5962684 L136.274356,35.2854307 C137.249888,28.1576022 133.347759,23.4307265 126.519033,23.4307265 C122.691945,23.4307265 119.390143,24.8562922 116.613628,27.4823343 L117.063874,24.3310838 L106.107896,24.3310838 L100.704948,62.5962684 L111.660926,62.5962684 Z M149.33148,63.4966256 C157.736066,63.4966256 163.139014,59.3699881 164.189588,51.9420405 C165.99057,39.3370385 151.957914,38.7368003 152.558241,34.4601032 C152.708323,33.1095673 154.434265,32.20921 156.685493,32.20921 C159.462008,32.20921 162.688769,33.4096864 164.564792,34.6851925 L165.915529,25.5315601 C163.214055,24.256054 159.837213,23.4307265 156.535411,23.4307265 C148.806194,23.4307265 142.877959,27.8574831 141.827386,34.9853116 C140.176485,46.7649861 154.134101,47.2151647 153.458732,52.2421596 C153.308651,53.8177848 151.807832,54.7181421 149.706685,54.7181421 C146.705047,54.7181421 142.727877,52.8423978 140.026403,50.5915046 L138.675666,60.4204049 C141.37714,62.371179 144.904065,63.4966256 149.33148,63.4966256 Z M178.372326,63.4966256 C182.049332,63.4966256 185.201052,62.1460897 187.827485,59.5200476 L187.37724,62.5962684 L198.333218,62.5962684 L203.736166,24.3310838 L192.780188,24.3310838 L189.328304,49.0158793 C188.577895,51.3418023 186.551789,52.8423978 183.925356,52.8423978 C181.298923,52.8423978 179.873145,51.116713 180.323391,48.3406114 L183.625192,24.3310838 L172.669214,24.3310838 L168.842126,51.6419214 C167.791553,58.8447797 171.693682,63.4966256 178.372326,63.4966256 Z M217.318577,62.5962684 L224.897712,8.57483128 L213.941734,8.57483128 L206.362599,62.5962684 L217.318577,62.5962684 Z M240.206065,63.4966256 C241.932007,63.4966256 243.507866,63.2715363 245.233808,62.8213577 L246.659586,52.6173085 C245.684054,52.9924573 244.633481,53.2175466 243.582907,53.2175466 C241.331679,53.2175466 240.055983,52.0170703 240.356147,49.3910282 L242.457293,34.3100437 L249.210978,34.3100437 L250.636756,24.3310838 L243.883071,24.3310838 L245.083726,16.0027789 L234.127748,16.0027789 L232.927093,24.3310838 L227.974391,24.3310838 L226.548613,34.3100437 L231.576356,34.3100437 L229.250087,50.5164748 C228.049432,59.1448988 232.70197,63.4966256 240.206065,63.4966256 Z" id="consult" fill="#FFFFFF" fill-rule="nonzero"></path>
                </g>
                <path d="M294.588,42.604 C302.992,42.604 309.548,35.74 309.548,27.6 C309.548,19.416 303.036,12.684 294.676,12.684 C286.272,12.684 279.76,19.548 279.76,27.688 C279.76,35.828 286.228,42.604 294.588,42.604 Z M294.588,40.624 C287.24,40.624 281.652,34.816 281.652,27.688 C281.652,20.56 287.284,14.664 294.676,14.664 C302.024,14.664 307.7,20.472 307.7,27.6 C307.7,34.728 301.98,40.624 294.588,40.624 Z M290.892,35.036 L290.892,30.108 L294.94,30.108 C295.248,30.108 295.556,30.108 295.864,30.064 L299.12,35.036 L301.32,35.036 L297.624,29.712 C299.868,29.008 301.1,27.248 301.1,24.696 C301.1,21.396 298.9,19.504 294.94,19.504 L289.044,19.504 L289.044,35.036 L290.892,35.036 Z M294.94,28.48 L290.892,28.48 L290.892,21.176 L294.94,21.176 C297.668,21.176 299.296,22.408 299.296,24.74 C299.296,27.116 297.668,28.48 294.94,28.48 Z" id="®" fill="#000000" fill-rule="nonzero"></path>
                <path d="M120.180992,136.978166 C125.13485,136.978166 130.088707,135.927187 134.29198,134.050439 L135.643032,124.36642 C131.064467,126.468377 126.56096,127.444286 122.657921,127.444286 C116.052777,127.444286 112.449972,124.741769 111.699387,120.462784 L138.495253,120.462784 C138.945604,119.336735 139.395955,117.760267 139.696189,115.808449 C141.197358,105.298661 134.742331,96.8908297 123.408505,96.8908297 C111.999621,96.8908297 102.016847,105.52387 100.44062,117.159708 C98.8643925,128.345125 105.694711,136.978166 120.180992,136.978166 Z M128.812714,113.256072 L112.675147,113.256072 C114.401491,109.052156 118.004297,106.349639 121.982395,106.349639 C126.410843,106.349639 128.887772,109.577646 128.812714,113.256072 Z M152.456125,136.978166 C155.758697,136.978166 158.911151,135.777047 161.38808,133.67509 L161.012788,136.077327 L171.07062,136.077327 L174.673426,110.553555 C175.799302,102.295864 170.395094,96.8908297 161.237963,96.8908297 C156.133989,96.8908297 150.804839,98.6174378 147.652384,100.719396 L146.451449,109.877926 C149.528845,107.851038 154.182469,106.1995 157.710216,106.1995 C161.763372,106.1995 164.015126,108.376527 163.564775,111.604534 L163.189483,114.006771 C161.38808,112.505373 158.911151,111.604534 156.05893,111.604534 C149.078495,111.604534 142.698527,117.009568 141.722767,124.21628 C140.671948,131.573132 145.475689,136.978166 152.456125,136.978166 Z M156.734456,128.720475 C154.257528,128.720475 152.531183,126.768657 152.906476,124.21628 C153.281768,121.738973 155.533521,119.862225 158.01045,119.862225 C160.41232,119.862225 162.138665,121.738973 161.763372,124.21628 C161.463139,126.768657 159.211385,128.720475 156.734456,128.720475 Z M187.958771,136.978166 C196.365317,136.978166 201.769526,132.84932 202.820344,125.417399 C204.621747,112.805652 190.585817,112.205093 191.186284,107.926108 C191.336401,106.574849 193.062746,105.67401 195.314499,105.67401 C198.091662,105.67401 201.319175,106.875129 203.195636,108.151317 L204.546688,98.9927874 C201.844584,97.7165988 198.466954,96.8908297 195.164382,96.8908297 C187.433362,96.8908297 181.503744,101.319955 180.452926,108.451597 C178.80164,120.237574 192.762512,120.687994 192.086986,125.717678 C191.936869,127.294147 190.4357,128.194986 188.334063,128.194986 C185.331725,128.194986 181.353628,126.318238 178.651523,124.06614 L177.300471,133.900299 C180.002575,135.852117 183.530323,136.978166 187.958771,136.978166 Z M226.688931,136.978166 C231.642788,136.978166 236.596646,135.927187 240.799919,134.050439 L242.150971,124.36642 C237.572406,126.468377 233.068899,127.444286 229.165859,127.444286 C222.560716,127.444286 218.95791,124.741769 218.207326,120.462784 L245.003192,120.462784 C245.453543,119.336735 245.903893,117.760267 246.204127,115.808449 C247.705296,105.298661 241.25027,96.8908297 229.916444,96.8908297 C218.50756,96.8908297 208.524786,105.52387 206.948559,117.159708 C205.372331,128.345125 212.20265,136.978166 226.688931,136.978166 Z M235.320652,113.256072 L219.183086,113.256072 C220.90943,109.052156 224.512236,106.349639 228.490333,106.349639 C232.918782,106.349639 235.395711,109.577646 235.320652,113.256072 Z" id="ease" fill="#000000" fill-rule="nonzero"></path>
            </g>
        </g>
    </g>
</svg>