<?xml version="1.0" encoding="UTF-8"?>
<svg width="64px" height="60px" viewBox="0 0 64 60" version="1.1" xmlns="http://www.w3.org/2000/svg" xmlns:xlink="http://www.w3.org/1999/xlink">
    <title>historyOutline</title>
    <g id="Page-1" stroke="none" stroke-width="1"   fill-rule="evenodd">
        <g id="historyOutline" transform="translate(0.000000, 0.000000)" >
            <path d="M34,6 C47.254834,6 58,16.745166 58,30 C58,43.254834 47.254834,54 34,54 C21.3691662,54 10.9647497,43.8337443 10.0180664,31.4454753 C9.97129748,30.8334585 12.3482577,29.1821363 13.2553711,27.5027669 C13.7436523,26.5987956 14.0548503,26.0083822 13.7436523,25.2670898 C12.6504766,22.663079 10.7774483,23.7441893 11.2401662,22.3643705 C14.4297781,12.8529892 23.4145884,6 34,6 Z M33.0014286,10.9994931 C31.8964795,10.9994931 31.0015208,11.8944518 31.0015208,12.9994009 L31.0015208,30.9985714 C31.0015208,31.6625408 31.279508,32.2605132 31.7114881,32.6084972 L43.7109351,41.6080824 C44.5948943,42.2710519 45.8478366,42.0920601 46.510806,41.2081009 C47.1737755,40.3241416 46.9947837,39.0711993 46.1108245,38.4082299 L35.0013365,29.9986175 L35.0013365,12.9994009 C35.0013365,11.8944518 34.1063777,10.9994931 33.0014286,10.9994931 Z" id="Combined-Shape"></path>
            <path d="M34.0013825,0 C19.3630572,0 6.86263328,10.5655131 4.42274572,24.9988479 L3.66278075,23.8689 C3.04380927,22.9519422 1.7998666,22.7099534 0.882908862,23.3289248 C-0.034048878,23.9478963 -0.276037725,25.191839 0.342933748,26.1087967 L4.34274941,32.1085202 C4.67173425,32.6084972 5.20770955,32.9354821 5.80268213,32.9984792 L6.00267291,32.9984792 C6.53264848,32.9964793 7.03962512,32.7844891 7.41260793,32.4085064 L12.4123775,27.4087368 C13.1933415,26.6277728 13.1933415,25.3598312 12.4123775,24.5788672 C11.6314135,23.7979032 10.3634719,23.7979032 9.58250793,24.5788672 L8.34256507,25.8288096 C10.6454589,11.6554628 24.0018434,2.03390626 38.1741902,4.33680013 C52.3465371,6.639694 61.9700936,19.9950785 59.6671997,34.1684253 C57.6222939,46.7538453 46.7517949,55.9994192 34.0013825,55.9974193 C25.9597532,56.1434125 18.3541037,52.3495874 13.6323213,45.8378875 C12.9913508,44.937929 11.7424084,44.7269387 10.8424499,45.3679091 C9.94249134,46.0088796 9.73150106,47.257822 10.3724715,48.1577806 C15.8402195,55.7294316 24.6638129,60.1502279 34.0013825,59.9972349 C50.569619,59.9972349 64,46.5668539 64,29.9986175 C64,13.430381 50.569619,0 34.0013825,0 Z" id="Path" fill-rule="nonzero"></path>
        </g>
    </g>
</svg>