<?xml version="1.0" encoding="UTF-8"?>
<svg width="53px" height="60px" viewBox="0 0 53 60" version="1.1" xmlns="http://www.w3.org/2000/svg" xmlns:xlink="http://www.w3.org/1999/xlink">
    <title>home (1)</title>
    <g id="Final-Screens" stroke="none" stroke-width="1"  fill-rule="evenodd">
        <g id="consultants" transform="translate(-146.000000, -2006.000000)"  fill-rule="nonzero">
            <g id="home-(1)" transform="translate(146.000000, 2006.000000)">
                <path d="M45.9425718,60 L6.79151061,60 C3.09612984,60 0,57.0037453 0,53.2084894 L0,22.9463171 C0,20.948814 0.898876404,19.051186 2.4968789,17.752809 L22.0724095,1.57303371 C24.5692884,-0.524344569 28.164794,-0.524344569 30.6616729,1.57303371 L50.2372035,17.6529338 C51.835206,18.9513109 52.7340824,20.8489388 52.7340824,22.8464419 L52.7340824,53.1086142 C52.7340824,57.0037453 49.6379526,60 45.9425718,60 Z M26.3670412,4.06991261 C25.7677903,4.06991261 25.0686642,4.26966292 24.5692884,4.66916355 L4.9937578,20.8489388 C4.39450687,21.3483146 3.99500624,22.1473159 3.99500624,22.9463171 L3.99500624,53.2084894 C3.99500624,54.7066167 5.19350811,56.0049938 6.79151061,56.0049938 L45.9425718,56.0049938 C47.4406991,56.0049938 48.7390762,54.8064919 48.7390762,53.2084894 L48.7390762,22.9463171 C48.7390762,22.1473159 48.3395755,21.3483146 47.7403246,20.8489388 L28.164794,4.66916355 C27.6654182,4.26966292 26.9662921,4.06991261 26.3670412,4.06991261 Z" id="Shape"></path>
                <path d="M38.3520599,51.2109863 L14.3820225,51.2109863 C13.2833958,51.2109863 12.3845194,50.3121099 12.3845194,49.2134831 C12.3845194,48.1148564 13.2833958,47.21598 14.3820225,47.21598 L38.3520599,47.21598 C39.4506866,47.21598 40.349563,48.1148564 40.349563,49.2134831 C40.349563,50.3121099 39.4506866,51.2109863 38.3520599,51.2109863 Z" id="Path"></path>
            </g>
        </g>
    </g>
</svg>