<?xml version="1.0" encoding="UTF-8"?>
<svg width="53px" height="60px" viewBox="0 0 53 60" version="1.1" xmlns="http://www.w3.org/2000/svg" xmlns:xlink="http://www.w3.org/1999/xlink">
    <title>home</title>
    <g id="Page-1" stroke="none" stroke-width="1"   fill-rule="evenodd">
        <g id="home" transform="translate(0.000000, 0.000000)"   fill-rule="nonzero">
            <path d="M30.6616729,1.57303371 L50.2372035,17.6529338 C51.835206,18.9513109 52.7340824,20.8489388 52.7340824,22.8464419 L52.7340824,53.1086142 C52.7340824,57.0037453 49.6379526,60 45.9425718,60 L6.79151061,60 C3.09612984,60 0,57.0037453 0,53.2084894 L0,22.9463171 C0,20.948814 0.898876404,19.051186 2.4968789,17.752809 L22.0724095,1.57303371 C24.5692884,-0.52434457 28.164794,-0.52434457 30.6616729,1.57303371 Z M38.3520599,47.21598 L14.3820225,47.21598 C13.2833958,47.21598 12.3845194,48.1148564 12.3845194,49.2134831 C12.3845194,50.3121099 13.2833958,51.2109863 14.3820225,51.2109863 L14.3820225,51.2109863 L38.3520599,51.2109863 C39.4506866,51.2109863 40.349563,50.3121099 40.349563,49.2134831 C40.349563,48.1148564 39.4506866,47.21598 38.3520599,47.21598 L38.3520599,47.21598 Z" id="Combined-Shape"></path>
        </g>
    </g>
</svg>