<?xml version="1.0" encoding="UTF-8"?>
<svg width="55px" height="60px" viewBox="0 0 55 60" version="1.1" xmlns="http://www.w3.org/2000/svg" xmlns:xlink="http://www.w3.org/1999/xlink">
    <title>Group</title>
    <g id="Page-1" stroke="none" stroke-width="1"   fill-rule="evenodd">
        <g id="Artboard" transform="translate(-184.000000, -139.000000)"  >
            <g id="Group" transform="translate(184.000000, 139.000000)">
                <path d="M27.5,0 C30.3185465,0 37.3680849,3.35683839 48.648615,10.0705152 C52.5868622,12.4143882 55,16.6587641 55,21.241725 L55,47 C55,54.1797017 49.1797017,60 42,60 L13,60 C5.82029825,60 8.79259876e-16,54.1797017 0,47 L0,21.2417265 C-1.73589956e-06,16.6587646 2.41313656,12.4143879 6.35138496,10.0705152 C17.6319151,3.3568384 24.6814535,0 27.5,0 Z M27.5,4 C25.0406258,4 18.81156,7.03326948 8.81280264,13.0998084 C5.82473091,14.9127591 4.00000056,18.1542029 4,21.6492512 L4,21.6492512 L4,46 C4,51.5228475 8.4771525,56 14,56 L14,56 L41,56 C46.5228475,56 51,51.5228475 51,46 L51,46 L51,21.6492519 C51,18.1542034 49.1752696,14.9127594 46.1871977,13.0998086 C36.1884401,7.03326954 29.9593742,4 27.5,4 Z M38,44 C39.1045695,44 40,44.8954305 40,46 C40,47.1045695 39.1045695,48 38,48 L38,48 L16,48 L15.8507377,47.9945143 C14.8158778,47.9181651 14,47.0543618 14,46 C14,44.8954305 14.8954305,44 16,44 L16,44 Z" id="Combined-Shape"></path>
            </g>
        </g>
    </g>
</svg>