<?xml version="1.0" encoding="UTF-8"?>
<svg width="46px" height="54px" viewBox="0 0 46 54" version="1.1" xmlns="http://www.w3.org/2000/svg" xmlns:xlink="http://www.w3.org/1999/xlink">
    <title>security</title>
    <defs>
        <filter color-interpolation-filters="auto" id="filter-1">
            <feColorMatrix in="SourceGraphic" type="matrix" values="0 0 0 0 1.000000 0 0 0 0 1.000000 0 0 0 0 1.000000 0 0 0 1.000000 0"></feColorMatrix>
        </filter>
    </defs>
    <g id="Final-Screens" stroke="none" stroke-width="1"   fill-rule="evenodd">
        <g id="Phone-Number" transform="translate(-296.000000, -1555.000000)">
            <g id="security" transform="translate(130.000000, 1518.000000)" filter="url(#filter-1)">
                <g transform="translate(166.000000, 37.000000)">
                    <path d="M45.3163632,13.9039766 C45.2886413,12.4460539 45.2621794,11.0687769 45.2621794,9.73635911 C45.2621794,8.6925016 44.4161558,7.84622601 43.3720463,7.84622601 C35.2885771,7.84622601 29.1340517,5.52312642 24.0039785,0.535191191 C23.2701028,-0.178523067 22.1022526,-0.178271049 21.3686289,0.535191191 C16.2390597,5.52312642 10.0855424,7.84622601 2.00257722,7.84622601 C0.958719711,7.84622601 0.112444119,8.6925016 0.112444119,9.73635911 C0.112444119,11.0690289 0.0862342738,12.44681 0.058260304,13.9049846 C-0.200813939,27.472612 -0.555654926,46.0541325 22.0672221,53.8956647 C22.2678282,53.9652216 22.477003,54 22.6861777,54 C22.8953524,54 23.1047792,53.9652216 23.3051333,53.8956647 C45.9297744,46.0538805 45.5754375,27.471856 45.3163632,13.9039766 Z M22.6864297,50.1040577 C3.28433947,43.0558774 3.57768813,27.6160101 3.83802246,13.9770617 C3.85364756,13.1585081 3.86876863,12.3651562 3.87935337,11.5874295 C11.4499665,11.2678709 17.5039368,8.97375341 22.6864297,4.4591075 C27.8694267,8.97375341 33.924405,11.268123 41.4955222,11.5874295 C41.5061069,12.3649042 41.521228,13.157752 41.5368531,13.9758016 C41.7969354,27.6152541 42.090032,43.0556253 22.6864297,50.1040577 Z" id="Shape" fill="#000000" fill-rule="nonzero"></path>
                    <path d="M29.195292,20.4340084 L20.0725016,29.5562948 L16.1795835,25.6633766 C15.4414235,24.9254687 14.2445913,24.9254687 13.5066833,25.6633766 C12.7685233,26.4017886 12.7685233,27.5983689 13.5066833,28.3365289 L18.7360515,33.5658971 C19.1050055,33.9348511 19.5888796,34.1193281 20.0725016,34.1193281 C20.5561237,34.1193281 21.0399978,33.9348511 21.4089517,33.5658971 L31.8679402,23.1071606 C32.6063522,22.3690007 32.6063522,21.1721684 31.8681923,20.4342604 C31.1302843,19.6961004 29.933452,19.6958484 29.195292,20.4340084 Z" id="Path" fill="#000000" fill-rule="nonzero"></path>
                </g>
            </g>
        </g>
    </g>
</svg>