<?xml version="1.0" encoding="UTF-8"?>
<svg width="55px" height="47px" viewBox="0 0 55 47" version="1.1" xmlns="http://www.w3.org/2000/svg" xmlns:xlink="http://www.w3.org/1999/xlink">
    <title>Group</title>
    <g id="Page-1" stroke="none" stroke-width="1"  fill-rule="evenodd">
        <g id="Artboard" transform="translate(-184.000000, -228.000000)"  >
            <g id="Group" transform="translate(184.000000, 228.928571)">
                <path d="M42,0 C49.1797017,-4.87160349e-15 55,5.82029825 55,13 L55,33 C55,40.1797017 49.1797017,46 42,46 L13,46 C5.82029825,46 -2.6734538e-15,40.1797017 0,33 L0,13 C-8.79259876e-16,5.82029825 5.82029825,-2.23382386e-15 13,0 L42,0 Z M41,4.14285714 L14,4.14285714 C8.4771525,4.14285714 4,8.62000964 4,14.1428571 L4,14.1428571 L4,32.1428571 C4,37.6657046 8.4771525,42.1428571 14,42.1428571 L14,42.1428571 L41,42.1428571 C46.5228475,42.1428571 51,37.6657046 51,32.1428571 L51,32.1428571 L51,14.1428571 C51,8.62000964 46.5228475,4.14285714 41,4.14285714 L41,4.14285714 Z M42.5,20.0714286 C44.4329966,20.0714286 46,21.6384319 46,23.5714286 C46,25.5044252 44.4329966,27.0714286 42.5,27.0714286 C40.5670034,27.0714286 39,25.5044252 39,23.5714286 C39,21.6384319 40.5670034,20.0714286 42.5,20.0714286 Z M29,11.0714286 C30.1045695,11.0714286 31,11.9668591 31,13.0714286 C31,14.1759981 30.1045695,15.0714286 29,15.0714286 L29,15.0714286 L14,15.0714286 L13.8507377,15.0659428 C12.8158778,14.9895937 12,14.1257904 12,13.0714286 C12,11.9668591 12.8954305,11.0714286 14,11.0714286 L14,11.0714286 Z" id="Combined-Shape"></path>
            </g>
        </g>
    </g>
</svg>